<svg width="1080" height="540" viewBox="0 0 1080 540" fill="none" xmlns="http://www.w3.org/2000/svg">
<g opacity="0.1">
<mask id="mask0_1_2578" style="mask-type:alpha" maskUnits="userSpaceOnUse" x="0" y="-540" width="1080" height="1080">
<rect y="-540" width="1080" height="1080" fill="url(#paint0_radial_1_2578)"/>
</mask>
<g mask="url(#mask0_1_2578)">
<g clip-path="url(#clip0_1_2578)">
<rect x="0.5" y="0.5" width="59" height="59" stroke="#FEF08A"/>
<rect x="60.5" y="0.5" width="59" height="59" stroke="#FEF08A"/>
<rect x="120.5" y="0.5" width="59" height="59" stroke="#FEF08A"/>
<rect x="180.5" y="0.5" width="59" height="59" stroke="#FEF08A"/>
<rect x="240.5" y="0.5" width="59" height="59" stroke="#FEF08A"/>
<rect x="300.5" y="0.5" width="59" height="59" stroke="#FEF08A"/>
<rect x="360.5" y="0.5" width="59" height="59" stroke="#FEF08A"/>
<rect x="420.5" y="0.5" width="59" height="59" stroke="#FEF08A"/>
<rect x="480.5" y="0.5" width="59" height="59" stroke="#FEF08A"/>
<rect x="540.5" y="0.5" width="59" height="59" stroke="#FEF08A"/>
<rect x="600.5" y="0.5" width="59" height="59" stroke="#FEF08A"/>
<rect x="660.5" y="0.5" width="59" height="59" stroke="#FEF08A"/>
<rect x="720.5" y="0.5" width="59" height="59" stroke="#FEF08A"/>
<rect x="780.5" y="0.5" width="59" height="59" stroke="#FEF08A"/>
<rect x="840.5" y="0.5" width="59" height="59" stroke="#FEF08A"/>
<rect x="900.5" y="0.5" width="59" height="59" stroke="#FEF08A"/>
<rect x="960.5" y="0.5" width="59" height="59" stroke="#FEF08A"/>
<rect x="1020.5" y="0.5" width="59" height="59" stroke="#FEF08A"/>
<rect x="0.5" y="60.5" width="59" height="59" stroke="#FEF08A"/>
<rect x="60.5" y="60.5" width="59" height="59" stroke="#FEF08A"/>
<rect x="120.5" y="60.5" width="59" height="59" stroke="#FEF08A"/>
<rect x="180.5" y="60.5" width="59" height="59" stroke="#FEF08A"/>
<rect x="240.5" y="60.5" width="59" height="59" stroke="#FEF08A"/>
<rect x="300.5" y="60.5" width="59" height="59" stroke="#FEF08A"/>
<rect x="360.5" y="60.5" width="59" height="59" stroke="#FEF08A"/>
<rect x="420.5" y="60.5" width="59" height="59" stroke="#FEF08A"/>
<rect x="480.5" y="60.5" width="59" height="59" stroke="#FEF08A"/>
<rect x="540.5" y="60.5" width="59" height="59" stroke="#FEF08A"/>
<rect x="600.5" y="60.5" width="59" height="59" stroke="#FEF08A"/>
<rect x="660.5" y="60.5" width="59" height="59" stroke="#FEF08A"/>
<rect x="720.5" y="60.5" width="59" height="59" stroke="#FEF08A"/>
<rect x="780.5" y="60.5" width="59" height="59" stroke="#FEF08A"/>
<rect x="840.5" y="60.5" width="59" height="59" stroke="#FEF08A"/>
<rect x="900.5" y="60.5" width="59" height="59" stroke="#FEF08A"/>
<rect x="960.5" y="60.5" width="59" height="59" stroke="#FEF08A"/>
<rect x="1020.5" y="60.5" width="59" height="59" stroke="#FEF08A"/>
<rect x="0.5" y="120.5" width="59" height="59" stroke="#FEF08A"/>
<rect x="60.5" y="120.5" width="59" height="59" stroke="#FEF08A"/>
<rect x="120.5" y="120.5" width="59" height="59" stroke="#FEF08A"/>
<rect x="180.5" y="120.5" width="59" height="59" stroke="#FEF08A"/>
<rect x="240.5" y="120.5" width="59" height="59" stroke="#FEF08A"/>
<rect x="300.5" y="120.5" width="59" height="59" stroke="#FEF08A"/>
<rect x="360.5" y="120.5" width="59" height="59" stroke="#FEF08A"/>
<rect x="420.5" y="120.5" width="59" height="59" stroke="#FEF08A"/>
<rect x="480.5" y="120.5" width="59" height="59" stroke="#FEF08A"/>
<rect x="540.5" y="120.5" width="59" height="59" stroke="#FEF08A"/>
<rect x="600.5" y="120.5" width="59" height="59" stroke="#FEF08A"/>
<rect x="660.5" y="120.5" width="59" height="59" stroke="#FEF08A"/>
<rect x="720.5" y="120.5" width="59" height="59" stroke="#FEF08A"/>
<rect x="780.5" y="120.5" width="59" height="59" stroke="#FEF08A"/>
<rect x="840.5" y="120.5" width="59" height="59" stroke="#FEF08A"/>
<rect x="900.5" y="120.5" width="59" height="59" stroke="#FEF08A"/>
<rect x="960.5" y="120.5" width="59" height="59" stroke="#FEF08A"/>
<rect x="1020.5" y="120.5" width="59" height="59" stroke="#FEF08A"/>
<rect x="0.5" y="180.5" width="59" height="59" stroke="#FEF08A"/>
<rect x="60.5" y="180.5" width="59" height="59" stroke="#FEF08A"/>
<rect x="120.5" y="180.5" width="59" height="59" stroke="#FEF08A"/>
<rect x="180.5" y="180.5" width="59" height="59" stroke="#FEF08A"/>
<rect x="240.5" y="180.5" width="59" height="59" stroke="#FEF08A"/>
<rect x="300.5" y="180.5" width="59" height="59" stroke="#FEF08A"/>
<rect x="360.5" y="180.5" width="59" height="59" stroke="#FEF08A"/>
<rect x="420.5" y="180.5" width="59" height="59" stroke="#FEF08A"/>
<rect x="480.5" y="180.5" width="59" height="59" stroke="#FEF08A"/>
<rect x="540.5" y="180.5" width="59" height="59" stroke="#FEF08A"/>
<rect x="600.5" y="180.5" width="59" height="59" stroke="#FEF08A"/>
<rect x="660.5" y="180.5" width="59" height="59" stroke="#FEF08A"/>
<rect x="720.5" y="180.5" width="59" height="59" stroke="#FEF08A"/>
<rect x="780.5" y="180.5" width="59" height="59" stroke="#FEF08A"/>
<rect x="840.5" y="180.5" width="59" height="59" stroke="#FEF08A"/>
<rect x="900.5" y="180.5" width="59" height="59" stroke="#FEF08A"/>
<rect x="960.5" y="180.5" width="59" height="59" stroke="#FEF08A"/>
<rect x="1020.5" y="180.5" width="59" height="59" stroke="#FEF08A"/>
<rect x="0.5" y="240.5" width="59" height="59" stroke="#FEF08A"/>
<rect x="60.5" y="240.5" width="59" height="59" stroke="#FEF08A"/>
<rect x="120.5" y="240.5" width="59" height="59" stroke="#FEF08A"/>
<rect x="180.5" y="240.5" width="59" height="59" stroke="#FEF08A"/>
<rect x="240.5" y="240.5" width="59" height="59" stroke="#FEF08A"/>
<rect x="300.5" y="240.5" width="59" height="59" stroke="#FEF08A"/>
<rect x="360.5" y="240.5" width="59" height="59" stroke="#FEF08A"/>
<rect x="420.5" y="240.5" width="59" height="59" stroke="#FEF08A"/>
<rect x="480.5" y="240.5" width="59" height="59" stroke="#FEF08A"/>
<rect x="540.5" y="240.5" width="59" height="59" stroke="#FEF08A"/>
<rect x="600.5" y="240.5" width="59" height="59" stroke="#FEF08A"/>
<rect x="660.5" y="240.5" width="59" height="59" stroke="#FEF08A"/>
<rect x="720.5" y="240.5" width="59" height="59" stroke="#FEF08A"/>
<rect x="780.5" y="240.5" width="59" height="59" stroke="#FEF08A"/>
<rect x="840.5" y="240.5" width="59" height="59" stroke="#FEF08A"/>
<rect x="900.5" y="240.5" width="59" height="59" stroke="#FEF08A"/>
<rect x="960.5" y="240.5" width="59" height="59" stroke="#FEF08A"/>
<rect x="1020.5" y="240.5" width="59" height="59" stroke="#FEF08A"/>
<rect x="0.5" y="300.5" width="59" height="59" stroke="#FEF08A"/>
<rect x="60.5" y="300.5" width="59" height="59" stroke="#FEF08A"/>
<rect x="120.5" y="300.5" width="59" height="59" stroke="#FEF08A"/>
<rect x="180.5" y="300.5" width="59" height="59" stroke="#FEF08A"/>
<rect x="240.5" y="300.5" width="59" height="59" stroke="#FEF08A"/>
<rect x="300.5" y="300.5" width="59" height="59" stroke="#FEF08A"/>
<rect x="360.5" y="300.5" width="59" height="59" stroke="#FEF08A"/>
<rect x="420.5" y="300.5" width="59" height="59" stroke="#FEF08A"/>
<rect x="480.5" y="300.5" width="59" height="59" stroke="#FEF08A"/>
<rect x="540.5" y="300.5" width="59" height="59" stroke="#FEF08A"/>
<rect x="600.5" y="300.5" width="59" height="59" stroke="#FEF08A"/>
<rect x="660.5" y="300.5" width="59" height="59" stroke="#FEF08A"/>
<rect x="720.5" y="300.5" width="59" height="59" stroke="#FEF08A"/>
<rect x="780.5" y="300.5" width="59" height="59" stroke="#FEF08A"/>
<rect x="840.5" y="300.5" width="59" height="59" stroke="#FEF08A"/>
<rect x="900.5" y="300.5" width="59" height="59" stroke="#FEF08A"/>
<rect x="960.5" y="300.5" width="59" height="59" stroke="#FEF08A"/>
<rect x="1020.5" y="300.5" width="59" height="59" stroke="#FEF08A"/>
<rect x="0.5" y="360.5" width="59" height="59" stroke="#FEF08A"/>
<rect x="60.5" y="360.5" width="59" height="59" stroke="#FEF08A"/>
<rect x="120.5" y="360.5" width="59" height="59" stroke="#FEF08A"/>
<rect x="180.5" y="360.5" width="59" height="59" stroke="#FEF08A"/>
<rect x="240.5" y="360.5" width="59" height="59" stroke="#FEF08A"/>
<rect x="300.5" y="360.5" width="59" height="59" stroke="#FEF08A"/>
<rect x="360.5" y="360.5" width="59" height="59" stroke="#FEF08A"/>
<rect x="420.5" y="360.5" width="59" height="59" stroke="#FEF08A"/>
<rect x="480.5" y="360.5" width="59" height="59" stroke="#FEF08A"/>
<rect x="540.5" y="360.5" width="59" height="59" stroke="#FEF08A"/>
<rect x="600.5" y="360.5" width="59" height="59" stroke="#FEF08A"/>
<rect x="660.5" y="360.5" width="59" height="59" stroke="#FEF08A"/>
<rect x="720.5" y="360.5" width="59" height="59" stroke="#FEF08A"/>
<rect x="780.5" y="360.5" width="59" height="59" stroke="#FEF08A"/>
<rect x="840.5" y="360.5" width="59" height="59" stroke="#FEF08A"/>
<rect x="900.5" y="360.5" width="59" height="59" stroke="#FEF08A"/>
<rect x="960.5" y="360.5" width="59" height="59" stroke="#FEF08A"/>
<rect x="1020.5" y="360.5" width="59" height="59" stroke="#FEF08A"/>
<rect x="0.5" y="420.5" width="59" height="59" stroke="#FEF08A"/>
<rect x="60.5" y="420.5" width="59" height="59" stroke="#FEF08A"/>
<rect x="120.5" y="420.5" width="59" height="59" stroke="#FEF08A"/>
<rect x="180.5" y="420.5" width="59" height="59" stroke="#FEF08A"/>
<rect x="240.5" y="420.5" width="59" height="59" stroke="#FEF08A"/>
<rect x="300.5" y="420.5" width="59" height="59" stroke="#FEF08A"/>
<rect x="360.5" y="420.5" width="59" height="59" stroke="#FEF08A"/>
<rect x="420.5" y="420.5" width="59" height="59" stroke="#FEF08A"/>
<rect x="480.5" y="420.5" width="59" height="59" stroke="#FEF08A"/>
<rect x="540.5" y="420.5" width="59" height="59" stroke="#FEF08A"/>
<rect x="600.5" y="420.5" width="59" height="59" stroke="#FEF08A"/>
<rect x="660.5" y="420.5" width="59" height="59" stroke="#FEF08A"/>
<rect x="720.5" y="420.5" width="59" height="59" stroke="#FEF08A"/>
<rect x="780.5" y="420.5" width="59" height="59" stroke="#FEF08A"/>
<rect x="840.5" y="420.5" width="59" height="59" stroke="#FEF08A"/>
<rect x="900.5" y="420.5" width="59" height="59" stroke="#FEF08A"/>
<rect x="960.5" y="420.5" width="59" height="59" stroke="#FEF08A"/>
<rect x="1020.5" y="420.5" width="59" height="59" stroke="#FEF08A"/>
<rect x="0.5" y="480.5" width="59" height="59" stroke="#FEF08A"/>
<rect x="60.5" y="480.5" width="59" height="59" stroke="#FEF08A"/>
<rect x="120.5" y="480.5" width="59" height="59" stroke="#FEF08A"/>
<rect x="180.5" y="480.5" width="59" height="59" stroke="#FEF08A"/>
<rect x="240.5" y="480.5" width="59" height="59" stroke="#FEF08A"/>
<rect x="300.5" y="480.5" width="59" height="59" stroke="#FEF08A"/>
<rect x="360.5" y="480.5" width="59" height="59" stroke="#FEF08A"/>
<rect x="420.5" y="480.5" width="59" height="59" stroke="#FEF08A"/>
<rect x="480.5" y="480.5" width="59" height="59" stroke="#FEF08A"/>
<rect x="540.5" y="480.5" width="59" height="59" stroke="#FEF08A"/>
<rect x="600.5" y="480.5" width="59" height="59" stroke="#FEF08A"/>
<rect x="660.5" y="480.5" width="59" height="59" stroke="#FEF08A"/>
<rect x="720.5" y="480.5" width="59" height="59" stroke="#FEF08A"/>
<rect x="780.5" y="480.5" width="59" height="59" stroke="#FEF08A"/>
<rect x="840.5" y="480.5" width="59" height="59" stroke="#FEF08A"/>
<rect x="900.5" y="480.5" width="59" height="59" stroke="#FEF08A"/>
<rect x="960.5" y="480.5" width="59" height="59" stroke="#FEF08A"/>
<rect x="1020.5" y="480.5" width="59" height="59" stroke="#FEF08A"/>
</g>
</g>
</g>
<defs>
<radialGradient id="paint0_radial_1_2578" cx="0" cy="0" r="1" gradientUnits="userSpaceOnUse" gradientTransform="translate(540) rotate(90) scale(540)">
<stop stop-color="white"/>
<stop offset="1" stop-color="white" stop-opacity="0"/>
</radialGradient>
<clipPath id="clip0_1_2578">
<rect width="1080" height="1080" fill="white" transform="translate(0 -540)"/>
</clipPath>
</defs>
</svg>
