<svg width="134" height="32" viewBox="0 0 134 32" fill="none" xmlns="http://www.w3.org/2000/svg">
<path d="M28.8192 3.17572C26.7696 1.12614 24.0469 0 21.1489 0C18.251 0 15.5282 1.12865 13.4786 3.17823C11.877 4.77986 10.8385 6.7944 10.4606 8.98162C10.423 9.20184 10.3905 9.42457 10.368 9.64979C10.343 9.87002 10.3254 10.0928 10.3154 10.3155C10.3054 10.4932 10.3029 10.6708 10.3029 10.851V12.325V12.9882V13.6514V21.697H18.3486H19.0118H19.6749C19.6849 21.5168 19.6925 21.3342 19.6925 21.149V19.6925H19.0293H12.3075V13.6313V12.3075V10.8485C12.3075 10.6633 12.3125 10.4832 12.325 10.3005C12.3375 10.0777 12.36 9.85751 12.39 9.63729C12.4201 9.41206 12.4601 9.19184 12.5077 8.97412C12.8705 7.28491 13.7214 5.77588 14.9001 4.59718C16.5017 2.99555 18.7115 2.00454 21.1489 2.00454C26.0239 2.00454 29.9904 5.97107 29.9904 10.846C29.9904 13.2835 28.9994 15.4932 27.3978 17.0949C26.2191 18.2735 24.71 19.1219 23.0208 19.4873V21.1465C23.0208 21.2766 23.0208 21.4067 23.0158 21.5344C25.203 21.1565 27.2176 20.1179 28.8192 18.5163C30.8688 16.4667 31.9974 13.744 31.9974 10.846C31.9974 7.94807 30.8688 5.2253 28.8192 3.17572Z" fill="#FDE047"/>
<path d="M12.3075 12.3049H19.6925V18.3661V21.1464C19.6925 21.3291 19.6875 21.5118 19.675 21.6945C19.6625 21.9172 19.6399 22.1374 19.6099 22.3576C19.5799 22.5804 19.5423 22.8006 19.4923 23.0183C19.1269 24.7075 18.2786 26.2166 17.0999 27.3978C15.4982 28.9994 13.2885 29.9904 10.851 29.9904C5.97606 29.9904 2.00955 26.0239 2.00955 21.1489C2.00955 18.7114 3.00305 16.5017 4.60218 14.9001C5.78087 13.7214 7.2924 12.873 8.97912 12.5077V10.851C8.97912 10.7208 8.97912 10.5907 8.98413 10.4631C6.79691 10.8384 4.78236 11.8795 3.17823 13.4811C1.12865 15.5307 0 18.2535 0 21.1514C0 24.0494 1.12865 26.7721 3.17572 28.8217C5.2253 30.8713 7.94807 31.9999 10.846 31.9999C13.744 31.9999 16.4667 30.8713 18.5163 28.8217C20.4382 26.8998 21.5494 24.3822 21.6795 21.687C21.6845 21.5994 21.687 21.5143 21.6895 21.4267C21.6895 21.3792 21.6895 21.3341 21.6895 21.2866C21.6895 21.2415 21.6895 21.1965 21.6895 21.1539V10.3054H13.6439H12.9807H12.3175C12.3075 10.4856 12.3 10.6683 12.3 10.8535V12.3124L12.3075 12.3049Z" fill="#FDE047"/>
<path d="M43.2828 23L48.5221 9.08H50.3008L45.2935 23H43.2828ZM54.0515 23L49.0441 9.08H50.9195L56.1781 23H54.0515ZM45.9315 17.4513H53.3941V19.1527H45.9315V17.4513ZM60.7841 23.1933C60.1268 23.1933 59.5468 23.058 59.0441 22.7873C58.5415 22.5038 58.1484 22.1171 57.8648 21.6273C57.5941 21.1376 57.4588 20.5769 57.4588 19.9453V13.14H59.4695V19.4813C59.4695 20.1644 59.637 20.6736 59.9721 21.0087C60.3073 21.3438 60.7841 21.5113 61.4028 21.5113C61.957 21.5113 62.4468 21.3824 62.8721 21.1247C63.3104 20.8669 63.6519 20.5124 63.8968 20.0613C64.1546 19.5973 64.2835 19.0624 64.2835 18.4567L64.5348 20.8153C64.2126 21.5371 63.7164 22.1171 63.0461 22.5553C62.3888 22.9807 61.6348 23.1933 60.7841 23.1933ZM64.3608 23V20.68H64.2835V13.14H66.2748V23H64.3608ZM73.1927 23.1933C72.0456 23.1933 71.2013 22.9291 70.66 22.4007C70.1316 21.8593 69.8673 21.0667 69.8673 20.0227V10.878L71.8587 10.124V20.042C71.8587 20.5576 71.994 20.9378 72.2647 21.1827C72.5353 21.4276 72.9736 21.55 73.5793 21.55C73.8113 21.55 74.0176 21.5307 74.198 21.492C74.3784 21.4533 74.5331 21.4082 74.662 21.3567V22.9807C74.5202 23.0451 74.3204 23.0967 74.0627 23.1353C73.8049 23.174 73.5149 23.1933 73.1927 23.1933ZM67.8953 14.7447V13.14H74.662V14.7447H67.8953ZM80.596 23.1933C79.5906 23.1933 78.7078 22.9742 77.9473 22.536C77.1869 22.0849 76.594 21.4727 76.1686 20.6993C75.7433 19.9131 75.5306 19.0238 75.5306 18.0313C75.5306 17.026 75.7433 16.1431 76.1686 15.3827C76.6069 14.6222 77.1998 14.0293 77.9473 13.604C78.7078 13.1658 79.5906 12.9467 80.596 12.9467C81.6142 12.9467 82.5035 13.1658 83.264 13.604C84.0244 14.0293 84.6109 14.6222 85.0233 15.3827C85.4486 16.1431 85.6613 17.026 85.6613 18.0313C85.6613 19.0238 85.4486 19.9131 85.0233 20.6993C84.6109 21.4727 84.0244 22.0849 83.264 22.536C82.5035 22.9742 81.6142 23.1933 80.596 23.1933ZM80.596 21.55C81.2018 21.55 81.7238 21.4018 82.162 21.1053C82.6131 20.8089 82.9675 20.3964 83.2253 19.868C83.4831 19.3396 83.612 18.7209 83.612 18.012C83.612 16.9551 83.3284 16.1238 82.7613 15.518C82.2071 14.8993 81.4853 14.59 80.596 14.59C79.7195 14.59 78.9978 14.8993 78.4306 15.518C77.8764 16.1367 77.5993 16.968 77.5993 18.012C77.5993 18.7209 77.7218 19.3396 77.9666 19.868C78.2244 20.3964 78.5789 20.8089 79.03 21.1053C79.494 21.4018 80.016 21.55 80.596 21.55ZM87.7265 23V13.14H89.6405V15.46H89.7372V23H87.7265ZM94.3772 23V16.562C94.3772 15.8918 94.2225 15.402 93.9132 15.0927C93.6038 14.7833 93.1592 14.6287 92.5792 14.6287C92.0378 14.6287 91.5481 14.7576 91.1098 15.0153C90.6845 15.2602 90.3494 15.6082 90.1045 16.0593C89.8596 16.4976 89.7372 17.0196 89.7372 17.6253L89.4858 15.3247C89.8081 14.59 90.2914 14.01 90.9358 13.5847C91.5932 13.1593 92.3278 12.9467 93.1398 12.9467C94.1194 12.9467 94.8992 13.2302 95.4792 13.7973C96.0721 14.3644 96.3685 15.112 96.3685 16.04V23H94.3772ZM101.028 23V16.562C101.028 15.8918 100.867 15.402 100.545 15.0927C100.235 14.7833 99.7905 14.6287 99.2105 14.6287C98.6821 14.6287 98.1987 14.7576 97.7605 15.0153C97.3352 15.2602 96.9936 15.6082 96.7358 16.0593C96.4909 16.4976 96.3685 17.0196 96.3685 17.6253L95.9625 15.3247C96.2976 14.59 96.8003 14.01 97.4705 13.5847C98.1536 13.1593 98.9141 12.9467 99.7518 12.9467C100.744 12.9467 101.537 13.2367 102.13 13.8167C102.723 14.3838 103.019 15.1442 103.019 16.098V23H101.028ZM111.715 23C111.651 22.7551 111.606 22.4844 111.58 22.188C111.567 21.8916 111.561 21.5307 111.561 21.1053H111.464V16.4073C111.464 15.7758 111.303 15.3053 110.981 14.996C110.671 14.6738 110.175 14.5127 109.492 14.5127C108.835 14.5127 108.306 14.6416 107.907 14.8993C107.52 15.1571 107.295 15.5244 107.23 16.0013H105.316C105.406 15.0733 105.825 14.3322 106.573 13.778C107.32 13.2238 108.319 12.9467 109.569 12.9467C110.858 12.9467 111.825 13.2496 112.469 13.8553C113.114 14.4482 113.436 15.3247 113.436 16.4847V21.1053C113.436 21.4018 113.455 21.7047 113.494 22.014C113.533 22.3233 113.591 22.652 113.668 23H111.715ZM108.313 23.1933C107.307 23.1933 106.508 22.9484 105.915 22.4587C105.323 21.956 105.026 21.2793 105.026 20.4287C105.026 19.5522 105.335 18.8627 105.954 18.36C106.586 17.8444 107.488 17.4964 108.661 17.316L111.909 16.794V18.2053L108.97 18.6693C108.313 18.7724 107.817 18.9464 107.481 19.1913C107.159 19.4362 106.998 19.7907 106.998 20.2547C106.998 20.7058 107.146 21.0473 107.443 21.2793C107.752 21.4984 108.197 21.608 108.777 21.608C109.55 21.608 110.188 21.4211 110.691 21.0473C111.206 20.6736 111.464 20.2031 111.464 19.636L111.715 21.0667C111.483 21.7498 111.071 22.2782 110.478 22.652C109.885 23.0129 109.163 23.1933 108.313 23.1933ZM115.065 23L120.305 9.08H122.083L117.076 23H115.065ZM125.834 23L120.827 9.08H122.702L127.961 23H125.834ZM117.714 17.4513H125.177V19.1527H117.714V17.4513ZM130.019 23V9.08H132.068V23H130.019Z" fill="white"/>
</svg>
